Patient4_TMGait_0pt4_03_right_10_GRF.mot
version=1
nRows=52
nColumns=19
inDegrees=no
endheader
time	F1x	F1y	F1z	M1x	M1y	M1z	F2x	F2y	F2z	M2x	M2y	M2z	EC1x	EC1y	EC1z	EC2x	EC2y	EC2z
12.08	-20.1952	799.6494	84.1591	-264.2222	-88.2997	811.818	1.4834	0.16376	0.76323	-0.16283	1.6356	2.1114	-0.0592	0.0182	-0.0073	-0.0462	0.0165	0.9585
12.0933	-11.9291	786.6431	82.0544	-260.121	-83.6448	799.929	0.78656	0.59677	0.40267	0.065921	1.322	2.0206	-0.0592	0.0182	-0.0073	-0.0462	0.0165	0.9585
12.1066	-4.47	773.0252	79.6299	-255.7925	-78.7872	786.3333	0.18785	0.92301	0.087221	0.25599	1.0623	1.8813	-0.0592	0.0182	-0.0073	-0.0462	0.0165	0.9585
12.1199	1.806	759.9735	76.9888	-251.6395	-73.9459	772.1425	-0.27369	1.1517	-0.16179	0.4032	0.86855	1.7399	-0.0592	0.0182	-0.0073	-0.0462	0.0165	0.9585
12.1331	6.8915	748.5637	74.258	-248.0384	-69.2668	758.5519	-0.61739	1.3133	-0.33976	0.51319	0.74224	1.6485	-0.0592	0.0182	-0.0073	-0.0462	0.0165	0.9585
12.1464	10.9665	739.6467	71.5259	-245.2911	-64.8075	746.6072	-0.84673	1.4147	-0.46302	0.58759	0.67857	1.5968	-0.0592	0.0182	-0.0073	-0.0462	0.0165	0.9585
12.1597	14.2684	733.7348	68.8972	-243.5799	-60.6243	737.0323	-1.0092	1.4503	-0.54596	0.62529	0.67373	1.5595	-0.0592	0.0182	-0.0073	-0.0462	0.0165	0.9585
12.173	17.0478	730.9569	66.4275	-242.9529	-56.7202	730.1431	-1.1374	1.3922	-0.61207	0.6174	0.72939	1.4779	-0.0592	0.0182	-0.0073	-0.0462	0.0165	0.9585
12.1863	19.5259	731.1222	64.1864	-243.3426	-53.1122	725.921	-1.2485	1.1996	-0.67098	0.54833	0.83339	1.2764	-0.0592	0.0182	-0.0073	-0.0462	0.0165	0.9585
12.1996	21.8736	733.8115	62.2058	-244.5988	-49.7967	724.0701	-1.3762	0.80807	-0.73645	0.39294	0.98453	0.8651	-0.0592	0.0182	-0.0073	-0.0462	0.0165	0.9585
12.2129	24.1906	738.4427	60.5425	-246.5056	-46.8106	724.1085	-1.5177	0.12418	-0.8049	0.11738	1.1603	0.11597	-0.0592	0.0182	-0.0073	-0.0462	0.0165	0.9585
12.2261	26.5408	744.35	59.2247	-248.8174	-44.1704	725.4471	-1.6695	-0.91309	-0.87863	-0.30396	1.3442	-1.046	-0.0592	0.0182	-0.0073	-0.0462	0.0165	0.9585
12.2394	28.9596	750.8486	58.2884	-251.2809	-41.909	727.467	-1.7898	-2.3619	-0.94148	-0.89025	1.493	-2.6871	-0.0592	0.0182	-0.0073	-0.0462	0.0165	0.9585
12.2527	31.4588	757.2682	57.7401	-253.6504	-40.0415	729.5576	-1.8288	-4.2065	-0.97337	-1.6335	1.5608	-4.7782	-0.0592	0.0182	-0.0073	-0.0462	0.0165	0.9585
12.266	34.0335	762.9562	57.5861	-255.6877	-38.5849	731.1236	-1.6867	-6.297	-0.9323	-2.4722	1.4663	-7.1527	-0.0592	0.0182	-0.0073	-0.0462	0.0165	0.9585
12.2793	36.6462	767.2891	57.7859	-257.169	-37.5182	731.6111	-1.2258	-8.2966	-0.76981	-3.2699	1.1036	-9.4333	-0.0592	0.0182	-0.0073	-0.0462	0.0165	0.9585
12.2926	39.235	769.6389	58.2852	-257.8706	-36.8133	730.469	-0.30195	-9.6059	-0.41273	-3.7844	0.33356	-10.936	-0.0592	0.0182	-0.0073	-0.0462	0.0165	0.9585
12.3059	41.703	769.386	59.0017	-257.5722	-36.4248	727.1784	1.2682	-9.2912	0.20765	-3.6399	-0.98972	-10.6003	-0.0592	0.0182	-0.0073	-0.0462	0.0165	0.9585
12.3191	43.9394	766.0137	59.8533	-256.0868	-36.3141	721.334	3.6351	-6.027	1.165	-2.3076	-2.9991	-6.9046	-0.0592	0.0182	-0.0073	-0.0462	0.0165	0.9585
12.3324	45.8164	759.1827	60.7446	-253.2857	-36.4367	712.7017	6.8673	1.8465	2.5011	0.87653	-5.7564	2.0503	-0.0592	0.0182	-0.0073	-0.0462	0.0165	0.9585
12.3457	47.2001	748.7186	61.5651	-249.1006	-36.7355	701.1955	10.8538	16.2365	4.1997	6.6699	-9.1852	18.4524	-0.0592	0.0182	-0.0073	-0.0462	0.0165	0.9585
12.359	47.9719	734.5287	62.1614	-243.506	-37.1076	686.7776	15.1978	38.996	6.1306	15.7999	-12.9656	44.4284	-0.0592	0.0182	-0.0073	-0.0462	0.0165	0.9585
12.3723	48.0319	716.4755	62.3432	-236.4801	-37.4109	669.3523	19.067	71.3502	7.9987	28.7382	-16.4226	81.3857	-0.0592	0.0182	-0.0073	-0.0462	0.0165	0.9585
12.3856	47.3245	694.2583	61.8789	-227.9684	-37.4499	648.6311	21.1007	113.16	9.2986	45.4016	-18.4507	129.184	-0.0592	0.0182	-0.0073	-0.0462	0.0165	0.9585
12.3989	45.8401	667.4825	60.544	-217.907	-37.0208	624.1975	19.6801	162.0782	9.3722	64.8216	-17.6847	185.1486	-0.0592	0.0182	-0.0073	-0.0462	0.0165	0.9585
12.4121	43.6377	635.9331	58.1454	-206.3128	-35.9236	595.7508	14.4615	213.88	7.4916	85.2658	-13.2331	244.5042	-0.0592	0.0182	-0.0073	-0.0462	0.0165	0.9585
12.4254	40.8967	599.8857	54.6176	-193.3724	-34.0292	563.3791	6.8032	263.8525	3.6508	104.856	-5.671	301.7632	-0.0592	0.0182	-0.0073	-0.0462	0.0165	0.9585
12.4387	37.8998	560.0798	50.0914	-179.4175	-31.3419	527.556	-1.6462	308.9996	-1.7949	122.4144	3.9188	353.3118	-0.0592	0.0182	-0.0073	-0.0462	0.0165	0.9585
12.452	34.9292	517.4168	44.8508	-164.8072	-27.9966	488.9064	-9.7126	348.9212	-8.0151	137.8133	14.1554	398.5634	-0.0592	0.0182	-0.0073	-0.0462	0.0165	0.9585
12.4653	32.1118	472.5868	39.2375	-149.792	-24.2329	447.9282	-16.7167	384.6264	-14.2676	151.4927	23.9479	438.6628	-0.0592	0.0182	-0.0073	-0.0462	0.0165	0.9585
12.4786	29.3833	426.0074	33.5484	-134.495	-20.3155	404.9618	-22.4256	417.5801	-19.9101	164.0656	32.5115	475.3275	-0.0592	0.0182	-0.0073	-0.0462	0.0165	0.9585
12.4919	26.5678	378.1073	28.0058	-119.0145	-16.4863	360.4241	-26.7663	449.1504	-24.6819	176.0926	39.5432	510.1316	-0.0592	0.0182	-0.0073	-0.0462	0.0165	0.9585
12.5051	23.4346	329.5523	22.8063	-103.5044	-12.9851	314.994	-29.8042	480.5899	-28.6353	188.0562	45.1451	544.5102	-0.0592	0.0182	-0.0073	-0.0462	0.0165	0.9585
12.5184	19.8065	281.2454	18.1437	-88.1892	-10.049	269.5777	-31.7253	512.9222	-32.1994	200.3142	49.8668	579.6542	-0.0592	0.0182	-0.0073	-0.0462	0.0165	0.9585
12.5317	15.5896	234.3408	14.1746	-73.3789	-7.8673	225.3285	-32.8457	546.6995	-35.8844	213.0288	54.396	616.239	-0.0592	0.0182	-0.0073	-0.0462	0.0165	0.9585
12.545	10.8606	190.1731	10.991	-59.4564	-6.5246	183.5426	-33.6114	581.8934	-40.1144	226.1468	59.3592	654.3029	-0.0592	0.0182	-0.0073	-0.0462	0.0165	0.9585
12.5583	5.8799	150.0633	8.5604	-46.821	-5.9303	145.4905	-34.4166	618.0548	-44.9927	239.4773	65.015	693.3768	-0.0592	0.0182	-0.0073	-0.0462	0.0165	0.9585
12.5716	1.078	115.009	6.7788	-35.784	-5.8637	112.1161	-35.4928	654.4415	-50.3206	252.7397	71.2277	732.6395	-0.0592	0.0182	-0.0073	-0.0462	0.0165	0.9585
12.5849	-3.0708	85.4596	5.4761	-26.4927	-6.0223	83.8389	-36.8787	689.9198	-55.6916	265.5245	77.5678	770.8055	-0.0592	0.0182	-0.0073	-0.0462	0.0165	0.9585
12.5981	-6.2184	61.2925	4.4865	-18.9144	-6.14	60.576	-38.4848	722.977	-60.7365	277.2777	83.5878	806.1623	-0.0592	0.0182	-0.0073	-0.0462	0.0165	0.9585
12.6114	-8.1385	42.0065	3.6615	-12.8925	-6.0081	41.8784	-40.119	751.9197	-65.2228	287.3692	88.9499	836.7935	-0.0592	0.0182	-0.0073	-0.0462	0.0165	0.9585
12.6247	-8.7837	27.0172	2.904	-8.236	-5.5221	27.2445	-41.568	775.1624	-69.0255	295.2124	93.4243	860.9081	-0.0592	0.0182	-0.0073	-0.0462	0.0165	0.9585
12.638	-8.225	15.7536	2.168	-4.7568	-4.6672	16.1628	-42.6551	791.551	-72.07	300.3906	96.8582	877.222	-0.0592	0.0182	-0.0073	-0.0462	0.0165	0.9585
12.6513	-6.785	7.7266	1.4743	-2.2927	-3.5697	8.1899	-43.2154	800.583	-74.3128	302.7465	99.1506	885.1853	-0.0592	0.0182	-0.0073	-0.0462	0.0165	0.9585
12.6646	-5.0037	2.5048	0.88503	-0.70102	-2.4595	2.9383	-43.1614	802.499	-75.7393	302.4147	100.2621	885.0874	-0.0592	0.0182	-0.0073	-0.0462	0.0165	0.9585
12.6779	-3.2782	-0.47925	0.4499	0.19729	-1.5111	-0.11844	-42.4809	798.2513	-76.3592	299.8058	100.2115	878.0073	-0.0592	0.0182	-0.0073	-0.0462	0.0165	0.9585
12.6911	-1.8359	-1.8402	0.15465	0.59352	-0.78267	-1.5456	-41.2105	789.417	-76.233	295.5629	99.0964	865.7101	-0.0592	0.0182	-0.0073	-0.0462	0.0165	0.9585
12.7044	-0.73903	-2.139	-0.015809	0.65951	-0.27955	-1.9009	-39.441	777.9508	-75.4568	290.4649	97.0754	850.3632	-0.0592	0.0182	-0.0073	-0.0462	0.0165	0.9585
12.7177	0.0053091	-1.8107	-0.095732	0.52992	0.031467	-1.6058	-37.2982	765.8754	-74.1677	285.3027	94.3623	834.1906	-0.0592	0.0182	-0.0073	-0.0462	0.0165	0.9585
12.731	0.45588	-1.1881	-0.11094	0.31008	0.19248	-0.99393	-34.9089	755.0238	-72.5185	280.7798	91.1882	819.188	-0.0592	0.0182	-0.0073	-0.0462	0.0165	0.9585
12.7443	0.68065	-0.4759	-0.088192	0.066118	0.24698	-0.27468	-32.3784	746.8374	-70.6848	277.4367	87.7907	806.8996	-0.0592	0.0182	-0.0073	-0.0462	0.0165	0.9585
12.7576	0.7498	0.2113	-0.047945	-0.16498	0.23248	0.43592	-29.778	742.225	-68.8204	275.6024	84.3649	798.2732	-0.0592	0.0182	-0.0073	-0.0462	0.0165	0.9585
